<svg xmlns="http://www.w3.org/2000/svg" version="1.1" xmlns:xlink="http://www.w3.org/1999/xlink" width="512" height="512" x="0" y="0" viewBox="0 0 30 30" style="enable-background:new 0 0 512 512" xml:space="preserve" class=""><g><g data-name="Layer 2"><g data-name="United kingdom"><circle cx="15" cy="15" r="15" fill="#012169" opacity="1" data-original="#012169" class=""></circle><path fill="#ffffff" d="M26.558 5.441 15 12.376 3.442 5.441A14.974 14.974 0 0 0 1.128 9.3l9.5 5.7-9.5 5.7a14.971 14.971 0 0 0 2.313 3.86L15 17.624l11.559 6.935a14.971 14.971 0 0 0 2.313-3.86l-9.5-5.7 9.5-5.7a14.974 14.974 0 0 0-2.314-3.858z" opacity="1" data-original="#ffffff" class=""></path><path fill="#c8102e" d="m2.988 23.957 13.469-8.082 11.392 6.835a15.011 15.011 0 0 0 .709-1.325l-12.1-7.26 11.391-6.834q-.389-.646-.837-1.248l-13.47 8.082L2.15 7.291q-.385.642-.708 1.324l12.1 7.26L2.15 22.71a15 15 0 0 0 .838 1.247z" opacity="1" data-original="#c8102e" class=""></path><path fill="#ffffff" d="M18.75.492a14.537 14.537 0 0 0-7.5 0V11.25H.492a14.537 14.537 0 0 0 0 7.5H11.25v10.758a14.537 14.537 0 0 0 7.5 0V18.75h10.758a14.537 14.537 0 0 0 0-7.5H18.75z" opacity="1" data-original="#ffffff" class=""></path><path fill="#c8102e" d="M17.25.187A15.032 15.032 0 0 0 15 0a15.032 15.032 0 0 0-2.25.187V12.75H.187A15.032 15.032 0 0 0 0 15a15.032 15.032 0 0 0 .187 2.25H12.75v12.563A15.032 15.032 0 0 0 15 30a15.032 15.032 0 0 0 2.25-.187V17.25h12.563A15.032 15.032 0 0 0 30 15a15.032 15.032 0 0 0-.187-2.25H17.25z" opacity="1" data-original="#c8102e" class=""></path></g></g></g></svg>