<svg xmlns="http://www.w3.org/2000/svg" version="1.1" xmlns:xlink="http://www.w3.org/1999/xlink" width="512" height="512" x="0" y="0" viewBox="0 0 512 512" style="enable-background:new 0 0 512 512" xml:space="preserve" class=""><g><linearGradient id="a" x1="69.23" x2="427.15" y1="69.23" y2="427.15" gradientUnits="userSpaceOnUse"><stop offset="0" stop-opacity="0"></stop><stop offset="1" stop-opacity=".3"></stop></linearGradient><g data-name="Layer 2"><circle cx="256" cy="256" r="256" fill="#0a389e" opacity="1" data-original="#0a389e" class=""></circle><path fill="#ed1d2a" d="M492.52 354.1c-38.08 91.75-128 156.55-233.21 157.88h-6.62C147.48 510.65 57.56 445.85 19.48 354.1z" opacity="1" data-original="#ed1d2a"></path><path fill="#ffffff" d="M492.51 157.87h-473C57.58 66.14 147.49 1.35 252.69 0h6.62c105.2 1.35 195.11 66.14 233.2 157.87z" opacity="1" data-original="#ffffff" class=""></path><path fill="url(#a)" d="M256 0C114.62 0 0 114.62 0 256s114.62 256 256 256 256-114.62 256-256S397.38 0 256 0zm-62.53 332.47c-81.3 0-147.2-66.15-147.2-147.74S112.17 37 193.47 37s147.2 66.14 147.2 147.73-65.91 147.74-147.2 147.74z" opacity="1" data-original="url(#a)" class=""></path></g></g></svg>