<svg xmlns="http://www.w3.org/2000/svg" version="1.1" xmlns:xlink="http://www.w3.org/1999/xlink" width="512" height="512" x="0" y="0" viewBox="0 0 512 512" style="enable-background:new 0 0 512 512" xml:space="preserve" class=""><g><path d="m226.696 317.577 3.235-7.379a6.681 6.681 0 0 0-3.232-8.708 6.679 6.679 0 0 1-3.633-7.485l.093-.416c.643-2.87.179-5.832-1.033-8.512-2.027-4.483.394-8.744 7.652-13.746 5.91-4.073 6.847-12.493 1.982-17.77-10.165-11.023-14.205-23.801-15.619-34.921 15.39-49.038 60.268-85.022 113.858-87.168-21.658-12.898-46.96-20.314-73.998-20.314-79.995 0-144.843 64.848-144.843 144.843S176.005 400.843 256 400.843c27.044 0 52.351-7.42 74.012-20.323-44.304-1.77-82.657-26.66-103.316-62.943z" fill="#ffffff" opacity="1" data-original="#000000" stroke-width="6" class="" style="stroke-width: 6;"></path><path d="M290.658 265.798c.429-1.089 1.97-1.089 2.4 0a35.094 35.094 0 0 0 19.772 19.772c1.089.429 1.089 1.97 0 2.4a35.094 35.094 0 0 0-19.772 19.772c-.429 1.089-1.97 1.089-2.4 0a35.094 35.094 0 0 0-19.772-19.772c-1.089-.429-1.089-1.97 0-2.4a35.097 35.097 0 0 0 19.772-19.772zM325.553 204.779c.57-1.446 2.617-1.446 3.187 0a46.614 46.614 0 0 0 26.262 26.262c1.446.57 1.446 2.617 0 3.187a46.614 46.614 0 0 0-26.262 26.262c-.57 1.446-2.617 1.446-3.187 0a46.614 46.614 0 0 0-26.262-26.262c-1.446-.57-1.446-2.617 0-3.187a46.617 46.617 0 0 0 26.262-26.262z" fill="#ffffff" opacity="1" data-original="#000000" stroke-width="6" class="" style="stroke-width: 6;"></path><path d="M148.616 157.859c-16.942 7.111-37.228 3.011-49.976-11.587h0c-15.418-17.656-41.869-19.972-60.085-5.646 22.516.751 41.087 18.632 42.267 41.543h0c1.024 19.888 15.155 35.984 33.593 40.379M363.384 354.141c16.942-7.111 37.228-3.011 49.976 11.587h0c15.418 17.656 41.869 19.972 60.085 5.646-22.516-.751-41.087-18.632-42.267-41.543h0c-1.024-19.888-15.156-35.984-33.593-40.379M157.859 363.384c7.111 16.942 3.011 37.228-11.587 49.976h0c-17.656 15.418-19.972 41.869-5.646 60.085.751-22.516 18.632-41.087 41.543-42.267h0c19.888-1.024 35.984-15.156 40.379-33.593M354.141 148.616c-7.111-16.942-3.011-37.228 11.587-49.976h0c17.656-15.418 19.972-41.869 5.646-60.085-.751 22.516-18.632 41.087-41.543 42.267h0c-19.888 1.024-35.984 15.155-40.379 33.593M287.3 113.932c-14.629-11.117-21.221-30.735-14.953-49.074h0c7.581-22.181-3.638-46.245-25.153-54.858 10.607 19.875 4.407 44.899-14.844 57.376h0c-16.711 10.831-23.585 31.117-18.173 49.282M224.7 398.068c14.629 11.117 21.221 30.735 14.953 49.074h0c-7.581 22.181 3.638 46.245 25.153 54.858-10.607-19.875-4.407-44.899 14.844-57.376h0c16.711-10.831 23.585-31.117 18.173-49.282M113.932 224.7c-11.117 14.629-30.735 21.221-49.074 14.953v0C42.677 232.071 18.613 243.29 10 264.805c19.875-10.607 44.899-4.407 57.376 14.844v0c10.831 16.711 31.117 23.585 49.282 18.173M398.068 287.3c11.117-14.629 30.735-21.221 49.074-14.953v0c22.181 7.581 46.245-3.638 54.858-25.153-19.875 10.607-44.899 4.407-57.376-14.844v0c-10.831-16.711-31.117-23.585-49.282-18.173M212.073 117.315c-18.228-2.313-33.746-16.007-37.487-35.023h0c-4.525-23-26.273-38.231-49.212-34.932 19.123 11.908 26.266 36.68 15.833 57.111h0c-9.057 17.736-4.867 38.741 8.903 51.766M299.927 394.685c18.228 2.313 33.746 16.007 37.487 35.023h0c4.525 23 26.273 38.231 49.212 34.932-19.123-11.908-26.266-36.68-15.833-57.111h0c9.057-17.736 4.867-38.741-8.903-51.766M117.315 299.927c-2.313 18.228-16.007 33.746-35.023 37.487h0c-23 4.525-38.231 26.273-34.932 49.212 11.908-19.123 36.68-26.266 57.111-15.833h0c17.736 9.057 38.741 4.867 51.766-8.903M394.685 212.073c2.313-18.228 16.007-33.746 35.023-37.487h0c23-4.525 38.231-26.273 34.932-49.212-11.908 19.123-36.68 26.266-57.111 15.833h0c-17.736-9.057-38.741-4.867-51.766 8.903" style="stroke-width: 6; stroke-linecap: round; stroke-linejoin: round; stroke-miterlimit: 10;" fill="none" stroke="#ffffff" stroke-width="6" stroke-linecap="round" stroke-linejoin="round" stroke-miterlimit="10" data-original="#000000" class="" opacity="1"></path><circle cx="256" cy="256" r="144.843" style="stroke-width: 6; stroke-linecap: round; stroke-linejoin: round; stroke-miterlimit: 10;" fill="none" stroke="#ffffff" stroke-width="6" stroke-linecap="round" stroke-linejoin="round" stroke-miterlimit="10" data-original="#000000" class="" opacity="1"></circle></g></svg>