<svg xmlns="http://www.w3.org/2000/svg" width="352" height="96" viewBox="0 0 352 96"><g transform="translate(31 13)"><path d="M1.6-13C4.7-13 14-13.8 18-.5c2.7 9 6.9 23.7 12.7 44.2h2.4C39.4 22.1 43.7 7.4 46-.5 50-14 60-13 64-13h30.9v96H63.4V26.4h-2.1L43.8 83H20.1L2.6 26.4H.5V83H-31v-96H1.6zM140-13v56.6h2.5L163.8-3c4.1-9.3 13-10.1 13-10.1h30.4v96h-32.1V26.4h-2.5L151.7 73c-4.1 9.2-13.4 10.1-13.4 10.1h-30.4v-96H140zm178.3 45.6c-4.5 12.7-18.5 21.8-34.1 21.8h-33.7V83H220V32.6h98.3z" fill-rule="evenodd" clip-rule="evenodd" fill="#0f754e"></path><path d="M285.6-13h-67.3c1.6 21.4 20 39.7 39.1 39.7h63C324 8.9 311.5-13 285.6-13z" fill-rule="evenodd" clip-rule="evenodd" fill="#358cf1"></path></g></svg>