<svg xmlns="http://www.w3.org/2000/svg" version="1.1" xmlns:xlink="http://www.w3.org/1999/xlink" width="512" height="512" x="0" y="0" viewBox="0 0 38 38" style="enable-background:new 0 0 512 512" xml:space="preserve" class=""><g><circle cx="19.008" cy="18.993" r="16" fill="#b0b8cf" transform="translate(-.019 .019)" opacity="1" data-original="#b0b8cf" class=""></circle><circle cx="19.008" cy="18.993" r="16" fill="#b0b8cf" transform="translate(-.019 .019)" opacity="1" data-original="#b0b8cf" class=""></circle><path fill="#9ea9c9" d="M31.397 29.12a15.968 15.968 0 0 1-12.389 5.873c-8.836 0-16-7.163-16-16C3.008 14 5.296 9.54 8.882 6.605A15.933 15.933 0 0 0 5.27 16.731c0 8.836 7.164 16 16 16 3.843 0 7.368-1.354 10.127-3.612z" opacity="1" data-original="#9ea9c9"></path><path fill="#c9cee2" d="M13.687 27.71c-.602.969-1.943 1.21-2.99.56-1.052-.655-1.419-1.966-.82-2.93.61-.98 1.957-1.2 2.99-.558 1.052.654 1.419 1.965.82 2.928z" opacity="1" data-original="#c9cee2"></path><path fill="#9ea9c9" d="M13.476 27.99c-.665.726-1.837.865-2.778.28-1.31-.815-1.492-2.569-.363-3.434-1.041 1.855 1.195 4.06 3.14 3.154z" opacity="1" data-original="#9ea9c9"></path><path fill="#c9cee2" d="M8.546 19.25c-.667.415-1.577.158-2.035-.562-.46-.724-.295-1.647.369-2.06.676-.422 1.583-.149 2.034.561.46.724.295 1.647-.368 2.06z" opacity="1" data-original="#c9cee2"></path><path fill="#9ea9c9" d="M8.33 19.358c-.634.247-1.407-.022-1.819-.67-.574-.904-.156-2.042.806-2.234-1.21.834-.47 2.873 1.013 2.904z" opacity="1" data-original="#9ea9c9"></path><path fill="#8a97b7" d="M23.316 34.407C10.865 37.879-.254 25.93 3.856 13.84c-2.354 11.729 7.581 22.31 19.46 20.566z" opacity="1" data-original="#8a97b7"></path><path fill="#c9cee2" d="M35.008 18.993c0 2.457-.554 4.785-1.543 6.865-9.953 5.096-21.586-2.186-21.4-13.723a16.1 16.1 0 0 1 2.614-8.55C24.865.73 35.008 8.388 35.008 18.994z" opacity="1" data-original="#c9cee2"></path><path fill="#e3e7f070" d="M34.849 21.26c-.994.752-2.15 1.496-3.343 1.815-2.85.774-5.364-.967-5.251-5.35.1-3.121 1.16-6.361.06-9.282-1.668-4.394-5.466-2.324-8.05-2.82-1.311-.25-2.421-1.067-3.274-2.121C25.961.665 36.464 9.864 34.85 21.26z" opacity="1" data-original="#e3e7f070"></path><path fill="#c9cee2" d="M7.407 12.799c-.484-.319-.37-1.198-.074-1.765.44-.847 1.269-1.183 1.61-.564.2.364.16.977-.131 1.537-.368.706-.996 1.06-1.405.792z" opacity="1" data-original="#c9cee2"></path><path fill="#9ea9c9" d="M7.291 12.698c-.295-.333-.287-1.032.042-1.664.44-.847 1.269-1.183 1.61-.564-.797-.45-1.95 1.137-1.652 2.228z" opacity="1" data-original="#9ea9c9"></path><path fill="#c9cee2" d="M14.4 32.314c-.346.378-.955.45-1.445.146-.68-.423-.775-1.335-.188-1.785.355-.272.882-.298 1.316-.028.615.383.764 1.179.317 1.667z" opacity="1" data-original="#c9cee2"></path><path fill="#9ea9c9" d="M14.4 32.314c-.346.378-.955.45-1.445.146-.68-.423-.775-1.335-.188-1.785-.541.964.62 2.11 1.633 1.64z" opacity="1" data-original="#9ea9c9"></path><path fill="#c9cee2" d="M26.016 30.142c.056.075.1.153.13.233.258.686-.409 1.533-1.63 1.994-1.366.515-2.908.353-3.444-.363a.888.888 0 0 1-.182-.473c-.046-.634.6-1.346 1.683-1.754 1.365-.515 2.907-.352 3.443.363z" opacity="1" data-original="#c9cee2"></path><path fill="#9ea9c9" d="M26.146 30.375c.258.686-.409 1.533-1.63 1.994-1.366.515-2.908.353-3.444-.363a.888.888 0 0 1-.182-.473c.599.702 2.156.845 3.537.324.936-.353 1.565-.923 1.719-1.482z" opacity="1" data-original="#9ea9c9"></path><path fill="#b0b8cf" d="M17.15 15.941c.422-.461 1.166-.55 1.764-.178.831.517.947 1.63.23 2.18-.433.332-1.077.364-1.607.034-.751-.467-.933-1.439-.387-2.036z" opacity="1" data-original="#b0b8cf" class=""></path><path fill="#9ea9c9" d="M17.15 15.941c.422-.461 1.166-.55 1.764-.178.831.517.947 1.63.23 2.18.661-1.177-.758-2.577-1.994-2.002z" opacity="1" data-original="#9ea9c9"></path><path fill="#b0b8cf" d="M14.319 8.574c.816-.508 1.954-.33 2.685.468 1.017 1.11.727 2.807-.562 3.323-.78.312-1.746.093-2.394-.615-.92-1.003-.786-2.518.27-3.176z" opacity="1" data-original="#b0b8cf" class=""></path><path fill="#9ea9c9" d="M14.319 8.574c.816-.508 1.954-.33 2.685.468 1.017 1.11.727 2.807-.562 3.323 1.467-1.47-.056-4.13-2.123-3.79z" opacity="1" data-original="#9ea9c9"></path><path fill="#b0b8cf" d="M21.8 10.366c.289-.308.792-.36 1.193-.103.556.357.624 1.11.134 1.475-.296.22-.732.236-1.086.008-.503-.323-.617-.982-.242-1.38z" opacity="1" data-original="#b0b8cf" class=""></path><path fill="#9ea9c9" d="M21.8 10.366c.289-.308.792-.36 1.193-.103.556.357.624 1.11.134 1.475.458-.79-.488-1.749-1.328-1.372z" opacity="1" data-original="#9ea9c9"></path><path fill="#b0b8cf" d="M19.188 4.669c.35-.267.902-.25 1.304.058.561.43.54 1.188-.033 1.482-.347.18-.82.136-1.177-.138-.51-.392-.545-1.06-.094-1.402z" opacity="1" data-original="#b0b8cf" class=""></path><path fill="#9ea9c9" d="M19.188 4.669c.35-.267.902-.25 1.304.058.561.43.54 1.188-.033 1.482.592-.721-.316-1.801-1.271-1.54z" opacity="1" data-original="#9ea9c9"></path><path fill="#b0b8cf" d="M26.62 7.484c.692-.063 1.399.427 1.654 1.188.357 1.07-.344 2.07-1.343 1.984-.61-.052-1.191-.513-1.417-1.188-.32-.957.211-1.902 1.106-1.984z" opacity="1" data-original="#b0b8cf" class=""></path><path fill="#9ea9c9" d="M26.62 7.484c.692-.063 1.399.427 1.654 1.188.357 1.07-.344 2.07-1.343 1.984 1.408-.478 1.163-2.715-.31-3.172z" opacity="1" data-original="#9ea9c9"></path><path fill="#b0b8cf" d="M27.66 16.821c.24-.702 1.006-1.15 1.833-1.03.924.135 1.572.93 1.449 1.775-.126.862-.99 1.42-1.896 1.287-1.039-.152-1.698-1.123-1.387-2.032z" opacity="1" data-original="#b0b8cf" class=""></path><path fill="#9ea9c9" d="M27.66 16.821c.24-.702 1.006-1.15 1.833-1.03 1.15.168 1.804 1.324 1.285 2.262.16-1.595-2.048-2.443-3.119-1.232z" opacity="1" data-original="#9ea9c9"></path><path fill="#b0b8cf" d="M23.72 22.09c.565-.614 1.56-.678 2.36-.108.895.637 1.207 1.826.698 2.655-.52.846-1.666.97-2.54.347-1.013-.722-1.245-2.102-.518-2.893z" opacity="1" data-original="#b0b8cf" class=""></path><path fill="#9ea9c9" d="M23.72 22.09c.565-.614 1.56-.678 2.36-.108 1.126.802 1.257 2.375.309 3.082.889-1.61-1.024-3.679-2.669-2.973z" opacity="1" data-original="#9ea9c9"></path><path fill="#b0b8cf" d="M18.267 7.833a.627.627 0 1 1-1.253-.059.627.627 0 0 1 1.253.06zM23.404 17.753a.51.51 0 0 1-.49-.52c.02-.28.25-.5.53-.48.28.01.5.25.48.52-.01.28-.24.49-.52.48z" opacity="1" data-original="#b0b8cf" class=""></path><path fill="#c9cee2" d="M32.883 13.068c-.15.182-.596.06-.994-.27-.398-.332-.598-.747-.447-.929.152-.182.596-.06.994.27s.598.748.447.93z" opacity="1" data-original="#c9cee2"></path><path fill="#b0b8cf" d="M25.894 18.463c-.03.58-.53 1.04-1.12 1.01a1.07 1.07 0 0 1-1.02-1.11c.03-.59.53-1.04 1.12-1.02.59.03 1.05.53 1.02 1.12zM18.283 20.466a.678.678 0 0 1-.828-.022c-.21-.201-.208-.51.045-.687.231-.175.606-.166.817.035a.414.414 0 0 1-.034.674zM15.318 14.64a.434.434 0 0 1-.423.322c-.193-.006-.317-.16-.276-.344a.433.433 0 0 1 .423-.323c.193.006.317.16.276.344zM34.697 19.424c-.24.32-.78.7-1.2.85-.42.15-.57.01-.33-.31.25-.32.78-.7 1.2-.85.43-.15.57-.01.33.31zM20.103 21.728c-.264.52-.754.785-1.083.628-.33-.178-.387-.723-.112-1.233.265-.52.764-.797 1.083-.628.342.166.388.723.112 1.233z" opacity="1" data-original="#b0b8cf" class=""></path><g fill="#8a97b7"><path d="M10.415 8.403c-.04.19-.23.33-.43.33-.19-.01-.31-.16-.27-.35a.43.43 0 0 1 .42-.32c.19 0 .32.16.28.34zM8.874 25.392c.016.203-.223.312-.547.224-.327-.08-.609-.313-.639-.522-.03-.21.207-.31.534-.23.326.08.622.319.652.528zM7.173 24.561c-.39.052-.756-.237-.826-.64-.059-.41.19-.772.579-.823.378-.042.745.246.815.648.07.403-.19.773-.568.815zM11.395 19.606c-.137.165-.323.094-.427-.167-.093-.265-.066-.62.07-.784.332-.4.674.571.357.951zM20.283 31.166c-.05.236-.658.318-1.354.185-.697-.122-1.221-.412-1.173-.637.064-.233.658-.318 1.355-.195.696.133 1.22.422 1.172.647zM20.377 30.018c-.128.163-.489.18-.796.044-.294-.134-.437-.377-.31-.53.143-.161.488-.181.796-.045.308.136.438.368.31.53zM11.91 19.604c-.044-.352.137-.717.394-.787.258-.07.499.164.532.52.111.836-.834 1.168-.926.267zM11.575 9.013c-.24.05-.49-.19-.58-.55-.08-.36.04-.7.27-.75.558-.14.88 1.157.31 1.3zM12.91 21.412c.094.265.066.62-.07.785-.331.397-.674-.571-.357-.952.137-.164.323-.094.427.167z" fill="#8a97b7" opacity="1" data-original="#8a97b7"></path></g><path fill="#9ea9c9" d="M8.204 14.783c-.158-.045-.146-.333.02-.31.07.02.13.335-.02.31zM8.884 14.633c-.305-.07-.261-.643.03-.57.13.03.264.619-.03.57zM10.41 8.405a.434.434 0 0 1-.423.323c-.193-.006-.317-.16-.276-.344a.434.434 0 0 1 .423-.323c.193.006.317.16.276.344zM29.652 28.817c-.062.148-.258.207-.438.132-.18-.075-.278-.255-.216-.403.061-.148.257-.207.438-.133.18.075.277.256.216.404z" opacity="1" data-original="#9ea9c9"></path><path fill="#8a97b7" d="M17.227 33.548c-.074.178-.31.25-.527.16-.217-.09-.333-.307-.26-.485.074-.178.31-.25.527-.16.217.09.333.307.26.485z" opacity="1" data-original="#8a97b7"></path><path fill="#919ebf" d="M4.426 14.943c.026.13-.074.276-.223.327-.149.052-.29-.011-.316-.14-.025-.129.074-.275.223-.327.15-.052.29.011.316.14z" opacity="1" data-original="#919ebf"></path><g fill="#fff"><path d="M13.688 18.883c-.206.152-.738-.238-1.097-.945-.36-.706-.37-1.4-.129-1.485.484-.173 1.648 2.118 1.226 2.43zM11.172 13.904c-.126-1.299.339-2.37.732-2.329.4.036.586 1.025.693 2.148.097 1.125.072 2.066-.306 2.203-.369.136-.995-.723-1.119-2.022z" fill="#ffffff" opacity="1" data-original="#ffffff"></path></g></g></svg>