<svg xmlns="http://www.w3.org/2000/svg" version="1.1" xmlns:xlink="http://www.w3.org/1999/xlink" width="512" height="512" x="0" y="0" viewBox="0 0 512 512" style="enable-background:new 0 0 512 512" xml:space="preserve" class=""><g><radialGradient id="a" cx="255.379" cy="259.543" r="240.78" gradientTransform="matrix(1.0039 0 0 -1.0039 .192 516.56)" gradientUnits="userSpaceOnUse"><stop offset="0" style="stop-color:#FFE000" stop-color="#ffe000"></stop><stop offset="1" style="stop-color:#FFE000;stop-opacity:0" stop-color="#ffe000;stop-opacity:0"></stop></radialGradient><circle cx="256" cy="256" r="256" style="fill:url(#a);" fill=""></circle><radialGradient id="b" cx="277.209" cy="258.193" r="193.66" gradientTransform="matrix(1.0039 0 0 -1.0039 .192 516.56)" gradientUnits="userSpaceOnUse"><stop offset="0" style="stop-color:#FF9111" stop-color="#ff9111"></stop><stop offset=".168" style="stop-color:#FF961A;stop-opacity:0.832" stop-color="#ff961a;stop-opacity:0.832"></stop><stop offset=".447" style="stop-color:#FFA534;stop-opacity:0.553" stop-color="#ffa534;stop-opacity:0.553"></stop><stop offset=".8" style="stop-color:#FFBD5D;stop-opacity:0.2" stop-color="#ffbd5d;stop-opacity:0.2"></stop><stop offset="1" style="stop-color:#FFCD77;stop-opacity:0" stop-color="#ffcd77;stop-opacity:0"></stop></radialGradient><path d="M256 52.838c-1.233 3.942-1.871 7.885-2.326 11.827a106.989 106.989 0 0 0-.631 11.827c.004 3.942.206 7.885.639 11.827.458 3.942 1.093 7.885 2.318 11.827 1.226-3.942 1.861-7.885 2.318-11.827.434-3.942.635-7.885.639-11.827.005-3.942-.198-7.885-.631-11.827-.455-3.942-1.093-7.885-2.326-11.827z" style="fill:url(#b);" fill=""></path><radialGradient id="c" cx="277.209" cy="-99.427" r="193.66" gradientTransform="matrix(1.0039 0 0 -1.0039 .192 516.56)" gradientUnits="userSpaceOnUse"><stop offset="0" style="stop-color:#FF9111" stop-color="#ff9111"></stop><stop offset=".168" style="stop-color:#FF961A;stop-opacity:0.832" stop-color="#ff961a;stop-opacity:0.832"></stop><stop offset=".447" style="stop-color:#FFA534;stop-opacity:0.553" stop-color="#ffa534;stop-opacity:0.553"></stop><stop offset=".8" style="stop-color:#FFBD5D;stop-opacity:0.2" stop-color="#ffbd5d;stop-opacity:0.2"></stop><stop offset="1" style="stop-color:#FFCD77;stop-opacity:0" stop-color="#ffcd77;stop-opacity:0"></stop></radialGradient><path d="M256 411.853c-1.233 3.942-1.871 7.885-2.326 11.827a106.989 106.989 0 0 0-.631 11.827c.004 3.942.206 7.885.639 11.827.458 3.942 1.093 7.885 2.318 11.827 1.226-3.942 1.861-7.885 2.318-11.827.434-3.942.635-7.885.639-11.827.005-3.942-.198-7.885-.631-11.827-.455-3.942-1.093-7.885-2.326-11.827z" style="fill:url(#c);" fill=""></path><radialGradient id="d" cx="612.719" cy="237.013" r="192.39" gradientTransform="matrix(1.0039 0 0 -1.0039 .192 516.56)" gradientUnits="userSpaceOnUse"><stop offset="0" style="stop-color:#FF9111" stop-color="#ff9111"></stop><stop offset=".168" style="stop-color:#FF961A;stop-opacity:0.832" stop-color="#ff961a;stop-opacity:0.832"></stop><stop offset=".447" style="stop-color:#FFA534;stop-opacity:0.553" stop-color="#ffa534;stop-opacity:0.553"></stop><stop offset=".8" style="stop-color:#FFBD5D;stop-opacity:0.2" stop-color="#ffbd5d;stop-opacity:0.2"></stop><stop offset="1" style="stop-color:#FFCD77;stop-opacity:0" stop-color="#ffcd77;stop-opacity:0"></stop></radialGradient><path d="M435.507 253.042c-3.942.003-7.885.205-11.827.639-3.942.458-7.885 1.093-11.827 2.318 3.942 1.226 7.885 1.861 11.827 2.318 3.942.434 7.885.637 11.827.639 3.942.005 7.885-.198 11.827-.631 3.942-.456 7.885-1.093 11.827-2.327-3.942-1.233-7.885-1.87-11.827-2.326a107.219 107.219 0 0 0-11.827-.63z" style="fill:url(#d);" fill=""></path><radialGradient id="e" cx="255.109" cy="237.013" r="192.39" gradientTransform="matrix(1.0039 0 0 -1.0039 .192 516.56)" gradientUnits="userSpaceOnUse"><stop offset="0" style="stop-color:#FF9111" stop-color="#ff9111"></stop><stop offset=".168" style="stop-color:#FF961A;stop-opacity:0.832" stop-color="#ff961a;stop-opacity:0.832"></stop><stop offset=".447" style="stop-color:#FFA534;stop-opacity:0.553" stop-color="#ffa534;stop-opacity:0.553"></stop><stop offset=".8" style="stop-color:#FFBD5D;stop-opacity:0.2" stop-color="#ffbd5d;stop-opacity:0.2"></stop><stop offset="1" style="stop-color:#FFCD77;stop-opacity:0" stop-color="#ffcd77;stop-opacity:0"></stop></radialGradient><path d="M76.493 258.958c3.942.005 7.885-.198 11.827-.631 3.942-.456 7.885-1.093 11.827-2.327-3.942-1.233-7.885-1.87-11.827-2.326a106.989 106.989 0 0 0-11.827-.631c-3.942.003-7.885.205-11.827.639-3.942.458-7.885 1.093-11.827 2.318 3.942 1.226 7.885 1.861 11.827 2.318 3.942.435 7.884.637 11.827.64z" style="fill:url(#e);" fill=""></path><radialGradient id="f" cx="507.889" cy="258.583" r="191.54" gradientTransform="matrix(1.0039 0 0 -1.0039 .192 516.56)" gradientUnits="userSpaceOnUse"><stop offset="0" style="stop-color:#FF9111" stop-color="#ff9111"></stop><stop offset=".168" style="stop-color:#FF961A;stop-opacity:0.832" stop-color="#ff961a;stop-opacity:0.832"></stop><stop offset=".447" style="stop-color:#FFA534;stop-opacity:0.553" stop-color="#ffa534;stop-opacity:0.553"></stop><stop offset=".8" style="stop-color:#FFBD5D;stop-opacity:0.2" stop-color="#ffbd5d;stop-opacity:0.2"></stop><stop offset="1" style="stop-color:#FFCD77;stop-opacity:0" stop-color="#ffcd77;stop-opacity:0"></stop></radialGradient><path d="M376.207 139.071a108.672 108.672 0 0 0 8.815-7.911 107.072 107.072 0 0 0 7.917-8.809c2.466-3.11 4.803-6.349 6.718-10.008-3.659 1.915-6.898 4.253-10.008 6.718a106.909 106.909 0 0 0-8.809 7.917c-2.786 2.79-5.43 5.72-7.911 8.815-2.465 3.111-4.803 6.348-6.724 10.003 3.654-1.922 6.89-4.26 10.002-6.725z" style="fill:url(#f);" fill=""></path><radialGradient id="g" cx="255.019" cy="5.713" r="191.54" gradientTransform="matrix(1.0039 0 0 -1.0039 .192 516.56)" gradientUnits="userSpaceOnUse"><stop offset="0" style="stop-color:#FF9111" stop-color="#ff9111"></stop><stop offset=".168" style="stop-color:#FF961A;stop-opacity:0.832" stop-color="#ff961a;stop-opacity:0.832"></stop><stop offset=".447" style="stop-color:#FFA534;stop-opacity:0.553" stop-color="#ffa534;stop-opacity:0.553"></stop><stop offset=".8" style="stop-color:#FFBD5D;stop-opacity:0.2" stop-color="#ffbd5d;stop-opacity:0.2"></stop><stop offset="1" style="stop-color:#FFCD77;stop-opacity:0" stop-color="#ffcd77;stop-opacity:0"></stop></radialGradient><path d="M135.787 372.923a106.909 106.909 0 0 0-8.809 7.917 108.84 108.84 0 0 0-7.911 8.815c-2.465 3.111-4.803 6.348-6.724 10.003 3.654-1.922 6.891-4.26 10.003-6.724a108.84 108.84 0 0 0 8.815-7.911 106.89 106.89 0 0 0 7.917-8.809c2.466-3.11 4.803-6.349 6.718-10.008-3.66 1.914-6.898 4.251-10.009 6.717z" style="fill:url(#g);" fill=""></path><radialGradient id="h" cx="507.889" cy="5.713" r="191.54" gradientTransform="matrix(1.0039 0 0 -1.0039 .192 516.56)" gradientUnits="userSpaceOnUse"><stop offset="0" style="stop-color:#FF9111" stop-color="#ff9111"></stop><stop offset=".168" style="stop-color:#FF961A;stop-opacity:0.832" stop-color="#ff961a;stop-opacity:0.832"></stop><stop offset=".447" style="stop-color:#FFA534;stop-opacity:0.553" stop-color="#ffa534;stop-opacity:0.553"></stop><stop offset=".8" style="stop-color:#FFBD5D;stop-opacity:0.2" stop-color="#ffbd5d;stop-opacity:0.2"></stop><stop offset="1" style="stop-color:#FFCD77;stop-opacity:0" stop-color="#ffcd77;stop-opacity:0"></stop></radialGradient><path d="M385.022 380.84c-2.79-2.786-5.72-5.43-8.815-7.911-3.111-2.465-6.348-4.803-10.003-6.723 1.922 3.654 4.26 6.891 6.724 10.003a108.84 108.84 0 0 0 7.911 8.815 107.072 107.072 0 0 0 8.809 7.917c3.11 2.466 6.349 4.803 10.008 6.718-1.915-3.659-4.253-6.898-6.718-10.008a106.222 106.222 0 0 0-7.916-8.811z" style="fill:url(#h);" fill=""></path><radialGradient id="i" cx="255.019" cy="258.583" r="191.54" gradientTransform="matrix(1.0039 0 0 -1.0039 .192 516.56)" gradientUnits="userSpaceOnUse"><stop offset="0" style="stop-color:#FF9111" stop-color="#ff9111"></stop><stop offset=".168" style="stop-color:#FF961A;stop-opacity:0.832" stop-color="#ff961a;stop-opacity:0.832"></stop><stop offset=".447" style="stop-color:#FFA534;stop-opacity:0.553" stop-color="#ffa534;stop-opacity:0.553"></stop><stop offset=".8" style="stop-color:#FFBD5D;stop-opacity:0.2" stop-color="#ffbd5d;stop-opacity:0.2"></stop><stop offset="1" style="stop-color:#FFCD77;stop-opacity:0" stop-color="#ffcd77;stop-opacity:0"></stop></radialGradient><path d="M126.977 131.16a107.236 107.236 0 0 0 8.809 7.917c3.11 2.466 6.349 4.803 10.008 6.718-1.915-3.659-4.253-6.898-6.718-10.008a106.728 106.728 0 0 0-7.917-8.809 108.84 108.84 0 0 0-8.815-7.911c-3.111-2.465-6.349-4.803-10.003-6.724 1.922 3.654 4.26 6.892 6.724 10.003a109.386 109.386 0 0 0 7.912 8.814z" style="fill:url(#i);" fill=""></path><radialGradient id="j" cx="387.889" cy="258.283" r="192" gradientTransform="matrix(1.0039 0 0 -1.0039 .192 516.56)" gradientUnits="userSpaceOnUse"><stop offset="0" style="stop-color:#FF9111" stop-color="#ff9111"></stop><stop offset=".168" style="stop-color:#FF961A;stop-opacity:0.832" stop-color="#ff961a;stop-opacity:0.832"></stop><stop offset=".447" style="stop-color:#FFA534;stop-opacity:0.553" stop-color="#ffa534;stop-opacity:0.553"></stop><stop offset=".8" style="stop-color:#FFBD5D;stop-opacity:0.2" stop-color="#ffbd5d;stop-opacity:0.2"></stop><stop offset="1" style="stop-color:#FFCD77;stop-opacity:0" stop-color="#ffcd77;stop-opacity:0"></stop></radialGradient><path d="M325.491 90.462a106.661 106.661 0 0 0 3.812-11.214c1.043-3.829 1.917-7.726 2.238-11.844-2.61 3.202-4.668 6.624-6.558 10.115A106.892 106.892 0 0 0 320 88.264a108.784 108.784 0 0 0-3.804 11.217c-1.041 3.83-1.918 7.726-2.246 11.841 2.603-3.205 4.659-6.628 6.55-10.118a108.356 108.356 0 0 0 4.991-10.742z" style="fill:url(#j);" fill=""></path><radialGradient id="k" cx="254.919" cy="-73.687" r="192" gradientTransform="matrix(1.0039 0 0 -1.0039 .192 516.56)" gradientUnits="userSpaceOnUse"><stop offset="0" style="stop-color:#FF9111" stop-color="#ff9111"></stop><stop offset=".168" style="stop-color:#FF961A;stop-opacity:0.832" stop-color="#ff961a;stop-opacity:0.832"></stop><stop offset=".447" style="stop-color:#FFA534;stop-opacity:0.553" stop-color="#ffa534;stop-opacity:0.553"></stop><stop offset=".8" style="stop-color:#FFBD5D;stop-opacity:0.2" stop-color="#ffbd5d;stop-opacity:0.2"></stop><stop offset="1" style="stop-color:#FFCD77;stop-opacity:0" stop-color="#ffcd77;stop-opacity:0"></stop></radialGradient><path d="M186.508 421.538a109.03 109.03 0 0 0-3.805 11.217c-1.041 3.83-1.917 7.726-2.246 11.841 2.604-3.204 4.659-6.628 6.551-10.118a109.026 109.026 0 0 0 4.991-10.742 107.044 107.044 0 0 0 3.812-11.214c1.043-3.829 1.916-7.726 2.238-11.844-2.61 3.201-4.668 6.624-6.558 10.115a106.908 106.908 0 0 0-4.983 10.745z" style="fill:url(#k);" fill=""></path><radialGradient id="l" cx="587.059" cy="126.073" r="191.06" gradientTransform="matrix(1.0039 0 0 -1.0039 .192 516.56)" gradientUnits="userSpaceOnUse"><stop offset="0" style="stop-color:#FF9111" stop-color="#ff9111"></stop><stop offset=".168" style="stop-color:#FF961A;stop-opacity:0.832" stop-color="#ff961a;stop-opacity:0.832"></stop><stop offset=".447" style="stop-color:#FFA534;stop-opacity:0.553" stop-color="#ffa534;stop-opacity:0.553"></stop><stop offset=".8" style="stop-color:#FFBD5D;stop-opacity:0.2" stop-color="#ffbd5d;stop-opacity:0.2"></stop><stop offset="1" style="stop-color:#FFCD77;stop-opacity:0" stop-color="#ffcd77;stop-opacity:0"></stop></radialGradient><path d="M423.737 320.001a108.784 108.784 0 0 0-11.217-3.804c-3.83-1.041-7.726-1.918-11.841-2.246 3.204 2.603 6.628 4.659 10.117 6.55a109.372 109.372 0 0 0 10.742 4.992 106.891 106.891 0 0 0 11.214 3.812c3.829 1.043 7.726 1.916 11.844 2.238-3.202-2.61-6.624-4.668-10.113-6.558a106.797 106.797 0 0 0-10.746-4.984z" style="fill:url(#l);" fill=""></path><radialGradient id="m" cx="255.089" cy="259.043" r="191.06" gradientTransform="matrix(1.0039 0 0 -1.0039 .192 516.56)" gradientUnits="userSpaceOnUse"><stop offset="0" style="stop-color:#FF9111" stop-color="#ff9111"></stop><stop offset=".168" style="stop-color:#FF961A;stop-opacity:0.832" stop-color="#ff961a;stop-opacity:0.832"></stop><stop offset=".447" style="stop-color:#FFA534;stop-opacity:0.553" stop-color="#ffa534;stop-opacity:0.553"></stop><stop offset=".8" style="stop-color:#FFBD5D;stop-opacity:0.2" stop-color="#ffbd5d;stop-opacity:0.2"></stop><stop offset="1" style="stop-color:#FFCD77;stop-opacity:0" stop-color="#ffcd77;stop-opacity:0"></stop></radialGradient><path d="M88.264 191.999a106.661 106.661 0 0 0 11.214 3.812c3.829 1.043 7.726 1.916 11.844 2.239-3.202-2.611-6.624-4.668-10.115-6.558a106.994 106.994 0 0 0-10.745-4.983 108.784 108.784 0 0 0-11.217-3.804c-3.83-1.041-7.726-1.917-11.841-2.246 3.205 2.604 6.628 4.659 10.117 6.55a108.821 108.821 0 0 0 10.743 4.99z" style="fill:url(#m);" fill=""></path><radialGradient id="n" cx="583.849" cy="259.013" r="191.09" gradientTransform="matrix(1.0039 0 0 -1.0039 .192 516.56)" gradientUnits="userSpaceOnUse"><stop offset="0" style="stop-color:#FF9111" stop-color="#ff9111"></stop><stop offset=".168" style="stop-color:#FF961A;stop-opacity:0.832" stop-color="#ff961a;stop-opacity:0.832"></stop><stop offset=".447" style="stop-color:#FFA534;stop-opacity:0.553" stop-color="#ffa534;stop-opacity:0.553"></stop><stop offset=".8" style="stop-color:#FFBD5D;stop-opacity:0.2" stop-color="#ffbd5d;stop-opacity:0.2"></stop><stop offset="1" style="stop-color:#FFCD77;stop-opacity:0" stop-color="#ffcd77;stop-opacity:0"></stop></radialGradient><path d="M409.242 187.889c-3.444 1.972-6.819 4.107-9.961 6.786 4.107-.425 7.981-1.391 11.785-2.523a108.747 108.747 0 0 0 11.124-4.066 107.18 107.18 0 0 0 10.625-5.234c3.444-1.971 6.819-4.108 9.958-6.793-4.11.418-7.985 1.382-11.789 2.515a106.85 106.85 0 0 0-11.121 4.073 108.968 108.968 0 0 0-10.621 5.242z" style="fill:url(#n);" fill=""></path><radialGradient id="o" cx="255.079" cy="118.293" r="191.09" gradientTransform="matrix(1.0039 0 0 -1.0039 .192 516.56)" gradientUnits="userSpaceOnUse"><stop offset="0" style="stop-color:#FF9111" stop-color="#ff9111"></stop><stop offset=".168" style="stop-color:#FF961A;stop-opacity:0.832" stop-color="#ff961a;stop-opacity:0.832"></stop><stop offset=".447" style="stop-color:#FFA534;stop-opacity:0.553" stop-color="#ffa534;stop-opacity:0.553"></stop><stop offset=".8" style="stop-color:#FFBD5D;stop-opacity:0.2" stop-color="#ffbd5d;stop-opacity:0.2"></stop><stop offset="1" style="stop-color:#FFCD77;stop-opacity:0" stop-color="#ffcd77;stop-opacity:0"></stop></radialGradient><path d="M102.761 324.118c3.445-1.971 6.819-4.108 9.958-6.793-4.109.418-7.985 1.382-11.789 2.515a107.08 107.08 0 0 0-11.121 4.073 108.96 108.96 0 0 0-10.621 5.241c-3.444 1.972-6.819 4.107-9.961 6.786 4.107-.425 7.981-1.391 11.786-2.523a108.747 108.747 0 0 0 11.124-4.066 106.393 106.393 0 0 0 10.624-5.233z" style="fill:url(#o);" fill=""></path><radialGradient id="p" cx="395.639" cy="-70.467" r="191.98" gradientTransform="matrix(1.0039 0 0 -1.0039 .192 516.56)" gradientUnits="userSpaceOnUse"><stop offset="0" style="stop-color:#FF9111" stop-color="#ff9111"></stop><stop offset=".168" style="stop-color:#FF961A;stop-opacity:0.832" stop-color="#ff961a;stop-opacity:0.832"></stop><stop offset=".447" style="stop-color:#FFA534;stop-opacity:0.553" stop-color="#ffa534;stop-opacity:0.553"></stop><stop offset=".8" style="stop-color:#FFBD5D;stop-opacity:0.2" stop-color="#ffbd5d;stop-opacity:0.2"></stop><stop offset="1" style="stop-color:#FFCD77;stop-opacity:0" stop-color="#ffcd77;stop-opacity:0"></stop></radialGradient><path d="M329.353 419.863a108.96 108.96 0 0 0-5.241-10.621c-1.972-3.444-4.107-6.819-6.786-9.961.425 4.107 1.391 7.981 2.523 11.786a108.984 108.984 0 0 0 4.066 11.124 107.18 107.18 0 0 0 5.234 10.625c1.97 3.445 4.107 6.819 6.793 9.958-.418-4.11-1.382-7.985-2.515-11.789a107.102 107.102 0 0 0-4.074-11.122z" style="fill:url(#p);" fill=""></path><radialGradient id="q" cx="254.929" cy="258.293" r="191.98" gradientTransform="matrix(1.0039 0 0 -1.0039 .192 516.56)" gradientUnits="userSpaceOnUse"><stop offset="0" style="stop-color:#FF9111" stop-color="#ff9111"></stop><stop offset=".168" style="stop-color:#FF961A;stop-opacity:0.832" stop-color="#ff961a;stop-opacity:0.832"></stop><stop offset=".447" style="stop-color:#FFA534;stop-opacity:0.553" stop-color="#ffa534;stop-opacity:0.553"></stop><stop offset=".8" style="stop-color:#FFBD5D;stop-opacity:0.2" stop-color="#ffbd5d;stop-opacity:0.2"></stop><stop offset="1" style="stop-color:#FFCD77;stop-opacity:0" stop-color="#ffcd77;stop-opacity:0"></stop></radialGradient><path d="M187.882 102.761c1.97 3.445 4.108 6.819 6.793 9.958-.418-4.11-1.382-7.985-2.516-11.789a106.85 106.85 0 0 0-4.073-11.121 108.733 108.733 0 0 0-5.241-10.621c-1.972-3.444-4.107-6.819-6.786-9.961.425 4.106 1.391 7.981 2.522 11.785a108.747 108.747 0 0 0 4.066 11.124 106.972 106.972 0 0 0 5.235 10.625z" style="fill:url(#q);" fill=""></path><radialGradient id="r" cx="327.219" cy="258.213" r="192.56" gradientTransform="matrix(1.0039 0 0 -1.0039 .192 516.56)" gradientUnits="userSpaceOnUse"><stop offset="0" style="stop-color:#FF9111" stop-color="#ff9111"></stop><stop offset=".168" style="stop-color:#FF961A;stop-opacity:0.832" stop-color="#ff961a;stop-opacity:0.832"></stop><stop offset=".447" style="stop-color:#FFA534;stop-opacity:0.553" stop-color="#ffa534;stop-opacity:0.553"></stop><stop offset=".8" style="stop-color:#FFBD5D;stop-opacity:0.2" stop-color="#ffbd5d;stop-opacity:0.2"></stop><stop offset="1" style="stop-color:#FFCD77;stop-opacity:0" stop-color="#ffcd77;stop-opacity:0"></stop></radialGradient><path d="M294.213 80.582c.78-3.864 1.357-7.769 1.708-11.721.329-3.954.48-7.946.046-12.054-1.985 3.623-3.385 7.363-4.608 11.139a106.87 106.87 0 0 0-2.945 11.472 109.13 109.13 0 0 0-1.7 11.722c-.327 3.955-.48 7.946-.053 12.052 1.978-3.624 3.375-7.365 4.6-11.141a109.202 109.202 0 0 0 2.952-11.469z" style="fill:url(#r);" fill=""></path><radialGradient id="s" cx="256.869" cy="-92.407" r="192.56" gradientTransform="matrix(1.0039 0 0 -1.0039 .192 516.56)" gradientUnits="userSpaceOnUse"><stop offset="0" style="stop-color:#FF9111" stop-color="#ff9111"></stop><stop offset=".168" style="stop-color:#FF961A;stop-opacity:0.832" stop-color="#ff961a;stop-opacity:0.832"></stop><stop offset=".447" style="stop-color:#FFA534;stop-opacity:0.553" stop-color="#ffa534;stop-opacity:0.553"></stop><stop offset=".8" style="stop-color:#FFBD5D;stop-opacity:0.2" stop-color="#ffbd5d;stop-opacity:0.2"></stop><stop offset="1" style="stop-color:#FFCD77;stop-opacity:0" stop-color="#ffcd77;stop-opacity:0"></stop></radialGradient><path d="M220.732 419.946a107.11 107.11 0 0 0-2.946 11.472 109.13 109.13 0 0 0-1.7 11.722c-.327 3.955-.48 7.946-.053 12.052 1.977-3.624 3.375-7.365 4.6-11.141a109.173 109.173 0 0 0 2.954-11.47c.78-3.865 1.357-7.77 1.708-11.721.328-3.955.479-7.946.046-12.054-1.986 3.624-3.386 7.364-4.609 11.14z" style="fill:url(#s);" fill=""></path><radialGradient id="t" cx="605.729" cy="186.913" r="191.37" gradientTransform="matrix(1.0039 0 0 -1.0039 .192 516.56)" gradientUnits="userSpaceOnUse"><stop offset="0" style="stop-color:#FF9111" stop-color="#ff9111"></stop><stop offset=".168" style="stop-color:#FF961A;stop-opacity:0.832" stop-color="#ff961a;stop-opacity:0.832"></stop><stop offset=".447" style="stop-color:#FFA534;stop-opacity:0.553" stop-color="#ffa534;stop-opacity:0.553"></stop><stop offset=".8" style="stop-color:#FFBD5D;stop-opacity:0.2" stop-color="#ffbd5d;stop-opacity:0.2"></stop><stop offset="1" style="stop-color:#FFCD77;stop-opacity:0" stop-color="#ffcd77;stop-opacity:0"></stop></radialGradient><path d="M432.582 288.414a109.114 109.114 0 0 0-11.723-1.701c-3.955-.327-7.946-.48-12.052-.053 3.624 1.978 7.365 3.376 11.141 4.6a109.128 109.128 0 0 0 11.471 2.954c3.864.78 7.769 1.357 11.72 1.708 3.955.328 7.946.479 12.054.045-3.623-1.985-7.363-3.385-11.138-4.607a106.777 106.777 0 0 0-11.473-2.946z" style="fill:url(#t);" fill=""></path><radialGradient id="u" cx="255.099" cy="257.263" r="191.37" gradientTransform="matrix(1.0039 0 0 -1.0039 .192 516.56)" gradientUnits="userSpaceOnUse"><stop offset="0" style="stop-color:#FF9111" stop-color="#ff9111"></stop><stop offset=".168" style="stop-color:#FF961A;stop-opacity:0.832" stop-color="#ff961a;stop-opacity:0.832"></stop><stop offset=".447" style="stop-color:#FFA534;stop-opacity:0.553" stop-color="#ffa534;stop-opacity:0.553"></stop><stop offset=".8" style="stop-color:#FFBD5D;stop-opacity:0.2" stop-color="#ffbd5d;stop-opacity:0.2"></stop><stop offset="1" style="stop-color:#FFCD77;stop-opacity:0" stop-color="#ffcd77;stop-opacity:0"></stop></radialGradient><path d="M79.418 223.586c3.865.78 7.77 1.357 11.721 1.708 3.954.329 7.946.479 12.054.046-3.623-1.985-7.363-3.385-11.139-4.607a107.353 107.353 0 0 0-11.472-2.947 109.13 109.13 0 0 0-11.722-1.7c-3.955-.327-7.946-.48-12.052-.053 3.624 1.978 7.365 3.376 11.141 4.6a108.779 108.779 0 0 0 11.469 2.953z" style="fill:url(#u);" fill=""></path><radialGradient id="v" cx="552.729" cy="258.793" r="191.28" gradientTransform="matrix(1.0039 0 0 -1.0039 .192 516.56)" gradientUnits="userSpaceOnUse"><stop offset="0" style="stop-color:#FF9111" stop-color="#ff9111"></stop><stop offset=".168" style="stop-color:#FF961A;stop-opacity:0.832" stop-color="#ff961a;stop-opacity:0.832"></stop><stop offset=".447" style="stop-color:#FFA534;stop-opacity:0.553" stop-color="#ffa534;stop-opacity:0.553"></stop><stop offset=".8" style="stop-color:#FFBD5D;stop-opacity:0.2" stop-color="#ffbd5d;stop-opacity:0.2"></stop><stop offset="1" style="stop-color:#FFCD77;stop-opacity:0" stop-color="#ffcd77;stop-opacity:0"></stop></radialGradient><path d="M385.731 169.629c3.96-1.165 7.595-2.821 11.129-4.625a108.817 108.817 0 0 0 10.2-6.023 107.216 107.216 0 0 0 9.495-7.08c3.029-2.564 5.957-5.28 8.555-8.491-3.964 1.159-7.6 2.813-11.134 4.618a106.877 106.877 0 0 0-10.195 6.029 109.033 109.033 0 0 0-9.491 7.087c-3.028 2.566-5.957 5.279-8.559 8.485z" style="fill:url(#v);" fill=""></path><radialGradient id="w" cx="255.059" cy="60.613" r="191.28" gradientTransform="matrix(1.0039 0 0 -1.0039 .192 516.56)" gradientUnits="userSpaceOnUse"><stop offset="0" style="stop-color:#FF9111" stop-color="#ff9111"></stop><stop offset=".168" style="stop-color:#FF961A;stop-opacity:0.832" stop-color="#ff961a;stop-opacity:0.832"></stop><stop offset=".447" style="stop-color:#FFA534;stop-opacity:0.553" stop-color="#ffa534;stop-opacity:0.553"></stop><stop offset=".8" style="stop-color:#FFBD5D;stop-opacity:0.2" stop-color="#ffbd5d;stop-opacity:0.2"></stop><stop offset="1" style="stop-color:#FFCD77;stop-opacity:0" stop-color="#ffcd77;stop-opacity:0"></stop></radialGradient><path d="M126.269 342.371c-3.965 1.159-7.601 2.812-11.134 4.618a106.877 106.877 0 0 0-10.195 6.029 108.867 108.867 0 0 0-9.49 7.087c-3.028 2.565-5.957 5.28-8.559 8.484 3.96-1.165 7.595-2.82 11.129-4.625a108.456 108.456 0 0 0 10.199-6.023 107.07 107.07 0 0 0 9.495-7.08c3.029-2.562 5.957-5.278 8.555-8.49z" style="fill:url(#w);" fill=""></path><radialGradient id="x" cx="453.159" cy="-39.257" r="191.78" gradientTransform="matrix(1.0039 0 0 -1.0039 .192 516.56)" gradientUnits="userSpaceOnUse"><stop offset="0" style="stop-color:#FF9111" stop-color="#ff9111"></stop><stop offset=".168" style="stop-color:#FF961A;stop-opacity:0.832" stop-color="#ff961a;stop-opacity:0.832"></stop><stop offset=".447" style="stop-color:#FFA534;stop-opacity:0.553" stop-color="#ffa534;stop-opacity:0.553"></stop><stop offset=".8" style="stop-color:#FFBD5D;stop-opacity:0.2" stop-color="#ffbd5d;stop-opacity:0.2"></stop><stop offset="1" style="stop-color:#FFCD77;stop-opacity:0" stop-color="#ffcd77;stop-opacity:0"></stop></radialGradient><path d="M357.942 403.781a109.033 109.033 0 0 0-7.087-9.491c-2.566-3.028-5.28-5.957-8.484-8.56 1.165 3.96 2.821 7.595 4.625 11.129a108.817 108.817 0 0 0 6.023 10.2 107.216 107.216 0 0 0 7.08 9.495c2.564 3.029 5.28 5.957 8.491 8.555-1.159-3.966-2.812-7.6-4.618-11.134a107.12 107.12 0 0 0-6.03-10.194z" style="fill:url(#x);" fill=""></path><radialGradient id="y" cx="254.979" cy="258.413" r="191.78" gradientTransform="matrix(1.0039 0 0 -1.0039 .192 516.56)" gradientUnits="userSpaceOnUse"><stop offset="0" style="stop-color:#FF9111" stop-color="#ff9111"></stop><stop offset=".168" style="stop-color:#FF961A;stop-opacity:0.832" stop-color="#ff961a;stop-opacity:0.832"></stop><stop offset=".447" style="stop-color:#FFA534;stop-opacity:0.553" stop-color="#ffa534;stop-opacity:0.553"></stop><stop offset=".8" style="stop-color:#FFBD5D;stop-opacity:0.2" stop-color="#ffbd5d;stop-opacity:0.2"></stop><stop offset="1" style="stop-color:#FFCD77;stop-opacity:0" stop-color="#ffcd77;stop-opacity:0"></stop></radialGradient><path d="M154.058 108.219a107.07 107.07 0 0 0 7.08 9.495c2.564 3.029 5.28 5.957 8.491 8.555-1.159-3.965-2.813-7.6-4.618-11.134a106.677 106.677 0 0 0-6.03-10.195 109.033 109.033 0 0 0-7.087-9.491c-2.566-3.028-5.28-5.957-8.484-8.56 1.165 3.96 2.82 7.595 4.625 11.13a108.472 108.472 0 0 0 6.023 10.2z" style="fill:url(#y);" fill=""></path><radialGradient id="z" cx="450.649" cy="258.413" r="191.79" gradientTransform="matrix(1.0039 0 0 -1.0039 .192 516.56)" gradientUnits="userSpaceOnUse"><stop offset="0" style="stop-color:#FF9111" stop-color="#ff9111"></stop><stop offset=".168" style="stop-color:#FF961A;stop-opacity:0.832" stop-color="#ff961a;stop-opacity:0.832"></stop><stop offset=".447" style="stop-color:#FFA534;stop-opacity:0.553" stop-color="#ffa534;stop-opacity:0.553"></stop><stop offset=".8" style="stop-color:#FFBD5D;stop-opacity:0.2" stop-color="#ffbd5d;stop-opacity:0.2"></stop><stop offset="1" style="stop-color:#FFCD77;stop-opacity:0" stop-color="#ffcd77;stop-opacity:0"></stop></radialGradient><path d="M349.692 116.918a108.657 108.657 0 0 0 7.007-9.549 106.99 106.99 0 0 0 5.943-10.245c1.776-3.549 3.399-7.198 4.525-11.173-3.189 2.625-5.88 5.576-8.419 8.627a106.866 106.866 0 0 0-7 9.554 109 109 0 0 0-5.936 10.249c-1.774 3.55-3.399 7.198-4.531 11.169 3.182-2.631 5.871-5.582 8.411-8.632z" style="fill:url(#z);" fill=""></path><radialGradient id="A" cx="254.969" cy="-40.917" r="191.79" gradientTransform="matrix(1.0039 0 0 -1.0039 .192 516.56)" gradientUnits="userSpaceOnUse"><stop offset="0" style="stop-color:#FF9111" stop-color="#ff9111"></stop><stop offset=".168" style="stop-color:#FF961A;stop-opacity:0.832" stop-color="#ff961a;stop-opacity:0.832"></stop><stop offset=".447" style="stop-color:#FFA534;stop-opacity:0.553" stop-color="#ffa534;stop-opacity:0.553"></stop><stop offset=".8" style="stop-color:#FFBD5D;stop-opacity:0.2" stop-color="#ffbd5d;stop-opacity:0.2"></stop><stop offset="1" style="stop-color:#FFCD77;stop-opacity:0" stop-color="#ffcd77;stop-opacity:0"></stop></radialGradient><path d="M162.301 395.077a106.866 106.866 0 0 0-7 9.554 109 109 0 0 0-5.936 10.249c-1.775 3.55-3.4 7.198-4.532 11.169 3.183-2.629 5.873-5.582 8.413-8.631a108.443 108.443 0 0 0 7.006-9.549 107.08 107.08 0 0 0 5.943-10.245c1.776-3.549 3.399-7.198 4.525-11.173-3.19 2.625-5.88 5.576-8.419 8.626z" style="fill:url(#A);" fill=""></path><radialGradient id="B" cx="554.389" cy="63.123" r="191.27" gradientTransform="matrix(1.0039 0 0 -1.0039 .192 516.56)" gradientUnits="userSpaceOnUse"><stop offset="0" style="stop-color:#FF9111" stop-color="#ff9111"></stop><stop offset=".168" style="stop-color:#FF961A;stop-opacity:0.832" stop-color="#ff961a;stop-opacity:0.832"></stop><stop offset=".447" style="stop-color:#FFA534;stop-opacity:0.553" stop-color="#ffa534;stop-opacity:0.553"></stop><stop offset=".8" style="stop-color:#FFBD5D;stop-opacity:0.2" stop-color="#ffbd5d;stop-opacity:0.2"></stop><stop offset="1" style="stop-color:#FFCD77;stop-opacity:0" stop-color="#ffcd77;stop-opacity:0"></stop></radialGradient><path d="M417.423 358.747a106.866 106.866 0 0 0-9.554-7 108.89 108.89 0 0 0-10.25-5.936c-3.55-1.774-7.198-3.399-11.169-4.532 2.629 3.183 5.581 5.872 8.631 8.412a108.821 108.821 0 0 0 9.55 7.007 106.868 106.868 0 0 0 10.245 5.943c3.549 1.776 7.198 3.399 11.173 4.525-2.625-3.188-5.576-5.88-8.626-8.419z" style="fill:url(#B);" fill=""></path><radialGradient id="C" cx="255.059" cy="258.803" r="191.27" gradientTransform="matrix(1.0039 0 0 -1.0039 .192 516.56)" gradientUnits="userSpaceOnUse"><stop offset="0" style="stop-color:#FF9111" stop-color="#ff9111"></stop><stop offset=".168" style="stop-color:#FF961A;stop-opacity:0.832" stop-color="#ff961a;stop-opacity:0.832"></stop><stop offset=".447" style="stop-color:#FFA534;stop-opacity:0.553" stop-color="#ffa534;stop-opacity:0.553"></stop><stop offset=".8" style="stop-color:#FFBD5D;stop-opacity:0.2" stop-color="#ffbd5d;stop-opacity:0.2"></stop><stop offset="1" style="stop-color:#FFCD77;stop-opacity:0" stop-color="#ffcd77;stop-opacity:0"></stop></radialGradient><path d="M94.581 153.246a108.821 108.821 0 0 0 9.55 7.007 107.203 107.203 0 0 0 10.245 5.943c3.549 1.776 7.198 3.399 11.173 4.525-2.625-3.189-5.576-5.88-8.627-8.419a107.01 107.01 0 0 0-9.554-7 109 109 0 0 0-10.249-5.936c-3.55-1.774-7.198-3.399-11.169-4.531 2.63 3.181 5.582 5.871 8.631 8.411z" style="fill:url(#C);" fill=""></path><radialGradient id="D" cx="605.119" cy="257.583" r="191.32" gradientTransform="matrix(1.0039 0 0 -1.0039 .192 516.56)" gradientUnits="userSpaceOnUse"><stop offset="0" style="stop-color:#FF9111" stop-color="#ff9111"></stop><stop offset=".168" style="stop-color:#FF961A;stop-opacity:0.832" stop-color="#ff961a;stop-opacity:0.832"></stop><stop offset=".447" style="stop-color:#FFA534;stop-opacity:0.553" stop-color="#ffa534;stop-opacity:0.553"></stop><stop offset=".8" style="stop-color:#FFBD5D;stop-opacity:0.2" stop-color="#ffbd5d;stop-opacity:0.2"></stop><stop offset="1" style="stop-color:#FFCD77;stop-opacity:0" stop-color="#ffcd77;stop-opacity:0"></stop></radialGradient><path d="M419.646 219.366c-3.765 1.256-7.493 2.685-11.101 4.693 4.11.392 8.099.206 12.051-.155a108.98 108.98 0 0 0 11.708-1.798c3.86-.803 7.677-1.81 11.447-3.042 3.766-1.254 7.493-2.685 11.099-4.701-4.112-.399-8.101-.215-12.053.147-3.947.384-7.848.993-11.706 1.806a108.969 108.969 0 0 0-11.445 3.05z" style="fill:url(#D);" fill=""></path><radialGradient id="E" cx="255.099" cy="184.293" r="191.32" gradientTransform="matrix(1.0039 0 0 -1.0039 .192 516.56)" gradientUnits="userSpaceOnUse"><stop offset="0" style="stop-color:#FF9111" stop-color="#ff9111"></stop><stop offset=".168" style="stop-color:#FF961A;stop-opacity:0.832" stop-color="#ff961a;stop-opacity:0.832"></stop><stop offset=".447" style="stop-color:#FFA534;stop-opacity:0.553" stop-color="#ffa534;stop-opacity:0.553"></stop><stop offset=".8" style="stop-color:#FFBD5D;stop-opacity:0.2" stop-color="#ffbd5d;stop-opacity:0.2"></stop><stop offset="1" style="stop-color:#FFCD77;stop-opacity:0" stop-color="#ffcd77;stop-opacity:0"></stop></radialGradient><path d="M92.356 292.642c3.766-1.254 7.493-2.686 11.099-4.701-4.111-.399-8.101-.215-12.053.147-3.947.383-7.848.993-11.706 1.806a108.742 108.742 0 0 0-11.446 3.05c-3.765 1.255-7.493 2.685-11.101 4.692 4.11.392 8.1.206 12.051-.155a108.73 108.73 0 0 0 11.708-1.798 106.862 106.862 0 0 0 11.448-3.041z" style="fill:url(#E);" fill=""></path><radialGradient id="F" cx="329.839" cy="-91.807" r="192.5" gradientTransform="matrix(1.0039 0 0 -1.0039 .192 516.56)" gradientUnits="userSpaceOnUse"><stop offset="0" style="stop-color:#FF9111" stop-color="#ff9111"></stop><stop offset=".168" style="stop-color:#FF961A;stop-opacity:0.832" stop-color="#ff961a;stop-opacity:0.832"></stop><stop offset=".447" style="stop-color:#FFA534;stop-opacity:0.553" stop-color="#ffa534;stop-opacity:0.553"></stop><stop offset=".8" style="stop-color:#FFBD5D;stop-opacity:0.2" stop-color="#ffbd5d;stop-opacity:0.2"></stop><stop offset="1" style="stop-color:#FFCD77;stop-opacity:0" stop-color="#ffcd77;stop-opacity:0"></stop></radialGradient><path d="M295.683 431.091a108.66 108.66 0 0 0-3.05-11.445c-1.256-3.765-2.686-7.493-4.693-11.101-.392 4.11-.206 8.099.155 12.051.383 3.947.993 7.848 1.798 11.708a106.74 106.74 0 0 0 3.042 11.447c1.254 3.766 2.685 7.493 4.7 11.099.399-4.111.215-8.101-.147-12.053a106.438 106.438 0 0 0-1.805-11.706z" style="fill:url(#F);" fill=""></path><radialGradient id="G" cx="256.549" cy="258.213" r="192.5" gradientTransform="matrix(1.0039 0 0 -1.0039 .192 516.56)" gradientUnits="userSpaceOnUse"><stop offset="0" style="stop-color:#FF9111" stop-color="#ff9111"></stop><stop offset=".168" style="stop-color:#FF961A;stop-opacity:0.832" stop-color="#ff961a;stop-opacity:0.832"></stop><stop offset=".447" style="stop-color:#FFA534;stop-opacity:0.553" stop-color="#ffa534;stop-opacity:0.553"></stop><stop offset=".8" style="stop-color:#FFBD5D;stop-opacity:0.2" stop-color="#ffbd5d;stop-opacity:0.2"></stop><stop offset="1" style="stop-color:#FFCD77;stop-opacity:0" stop-color="#ffcd77;stop-opacity:0"></stop></radialGradient><path d="M219.359 92.356c1.254 3.766 2.685 7.493 4.7 11.099.399-4.111.215-8.101-.147-12.053a107.2 107.2 0 0 0-1.806-11.706 108.66 108.66 0 0 0-3.05-11.445c-1.256-3.765-2.685-7.494-4.693-11.101-.392 4.11-.206 8.099.155 12.051a109.27 109.27 0 0 0 1.798 11.708 106.98 106.98 0 0 0 3.043 11.447z" style="fill:url(#G);" fill=""></path><radialGradient id="H" cx="215.079" cy="327.093" r="255.61" gradientTransform="matrix(1.0039 0 0 -1.0039 .192 516.56)" gradientUnits="userSpaceOnUse"><stop offset="0" style="stop-color:#FEFFB3" stop-color="#feffb3"></stop><stop offset=".196" style="stop-color:#FEFEB0" stop-color="#fefeb0"></stop><stop offset=".347" style="stop-color:#FEF9A6" stop-color="#fef9a6"></stop><stop offset=".484" style="stop-color:#FEF296" stop-color="#fef296"></stop><stop offset=".612" style="stop-color:#FEE87E" stop-color="#fee87e"></stop><stop offset=".733" style="stop-color:#FEDA60" stop-color="#feda60"></stop><stop offset=".85" style="stop-color:#FFCA3C" stop-color="#ffca3c"></stop><stop offset=".962" style="stop-color:#FFB611" stop-color="#ffb611"></stop><stop offset="1" style="stop-color:#FFAF00" stop-color="#ffaf00"></stop></radialGradient><circle cx="256" cy="256" r="158.83" style="fill:url(#H);" fill=""></circle></g></svg>